<?xml version="1.0" encoding="UTF-8" standalone="no"?>
<!DOCTYPE svg PUBLIC "-//W3C//DTD SVG 1.1//EN"
 "http://www.w3.org/Graphics/SVG/1.1/DTD/svg11.dtd">
<!-- Generated by graphviz version 2.40.1 (20161225.0304)
 -->
<!-- Title: G Pages: 1 -->
<svg width="1614pt" height="320pt"
 viewBox="0.00 0.00 1614.39 320.00" xmlns="http://www.w3.org/2000/svg" xmlns:xlink="http://www.w3.org/1999/xlink">
<g id="graph0" class="graph" transform="scale(1 1) rotate(0) translate(21.6 298.4)">
<title>G</title>
<polygon fill="#111111" stroke="transparent" points="-21.6,21.6 -21.6,-298.4 1592.786,-298.4 1592.786,21.6 -21.6,21.6"/>
<!-- App.js -->
<g id="node1" class="node">
<title>App.js</title>
<path fill="none" stroke="#c6c5fe" d="M146.0997,-126.7008C146.0997,-126.7008 107.7025,-126.7008 107.7025,-126.7008 103.6023,-126.7008 99.502,-122.6005 99.502,-118.5003 99.502,-118.5003 99.502,-110.2997 99.502,-110.2997 99.502,-106.1995 103.6023,-102.0992 107.7025,-102.0992 107.7025,-102.0992 146.0997,-102.0992 146.0997,-102.0992 150.1999,-102.0992 154.3002,-106.1995 154.3002,-110.2997 154.3002,-110.2997 154.3002,-118.5003 154.3002,-118.5003 154.3002,-122.6005 150.1999,-126.7008 146.0997,-126.7008"/>
<text text-anchor="middle" x="126.9011" y="-110.2" font-family="Arial" font-size="14.00" fill="#c6c5fe">App.js</text>
</g>
<!-- containers/SearchContainer.js -->
<g id="node2" class="node">
<title>containers/SearchContainer.js</title>
<path fill="none" stroke="#c6c5fe" d="M397.5481,-126.7008C397.5481,-126.7008 209.9861,-126.7008 209.9861,-126.7008 205.8858,-126.7008 201.7855,-122.6005 201.7855,-118.5003 201.7855,-118.5003 201.7855,-110.2997 201.7855,-110.2997 201.7855,-106.1995 205.8858,-102.0992 209.9861,-102.0992 209.9861,-102.0992 397.5481,-102.0992 397.5481,-102.0992 401.6484,-102.0992 405.7487,-106.1995 405.7487,-110.2997 405.7487,-110.2997 405.7487,-118.5003 405.7487,-118.5003 405.7487,-122.6005 401.6484,-126.7008 397.5481,-126.7008"/>
<text text-anchor="middle" x="303.7671" y="-110.2" font-family="Arial" font-size="14.00" fill="#c6c5fe">containers/SearchContainer.js</text>
</g>
<!-- App.js&#45;&gt;containers/SearchContainer.js -->
<g id="edge1" class="edge">
<title>App.js&#45;&gt;containers/SearchContainer.js</title>
<path fill="none" stroke="#757575" d="M154.5364,-114.4C165.1689,-114.4 178.0739,-114.4 191.7943,-114.4"/>
<polygon fill="#757575" stroke="#757575" points="191.9082,-117.9001 201.9082,-114.4 191.9082,-110.9001 191.9082,-117.9001"/>
</g>
<!-- api.js -->
<g id="node3" class="node">
<title>api.js</title>
<path fill="none" stroke="#cfffac" d="M601.3351,-104.7008C601.3351,-104.7008 563.7361,-104.7008 563.7361,-104.7008 559.6359,-104.7008 555.5356,-100.6005 555.5356,-96.5003 555.5356,-96.5003 555.5356,-88.2997 555.5356,-88.2997 555.5356,-84.1995 559.6359,-80.0992 563.7361,-80.0992 563.7361,-80.0992 601.3351,-80.0992 601.3351,-80.0992 605.4353,-80.0992 609.5356,-84.1995 609.5356,-88.2997 609.5356,-88.2997 609.5356,-96.5003 609.5356,-96.5003 609.5356,-100.6005 605.4353,-104.7008 601.3351,-104.7008"/>
<text text-anchor="middle" x="582.5356" y="-88.2" font-family="Arial" font-size="14.00" fill="#cfffac">api.js</text>
</g>
<!-- containers/SearchContainer.js&#45;&gt;api.js -->
<g id="edge10" class="edge">
<title>containers/SearchContainer.js&#45;&gt;api.js</title>
<path fill="none" stroke="#757575" d="M405.5922,-106.3641C454.2213,-102.5264 509.4415,-98.1685 545.0691,-95.3568"/>
<polygon fill="#757575" stroke="#757575" points="545.7744,-98.8121 555.468,-94.5361 545.2236,-91.8338 545.7744,-98.8121"/>
</g>
<!-- config/appConfig.js -->
<g id="node5" class="node">
<title>config/appConfig.js</title>
<path fill="none" stroke="#cfffac" d="M1562.6089,-125.7008C1562.6089,-125.7008 1443.9455,-125.7008 1443.9455,-125.7008 1439.8453,-125.7008 1435.745,-121.6005 1435.745,-117.5003 1435.745,-117.5003 1435.745,-109.2997 1435.745,-109.2997 1435.745,-105.1995 1439.8453,-101.0992 1443.9455,-101.0992 1443.9455,-101.0992 1562.6089,-101.0992 1562.6089,-101.0992 1566.7091,-101.0992 1570.8094,-105.1995 1570.8094,-109.2997 1570.8094,-109.2997 1570.8094,-117.5003 1570.8094,-117.5003 1570.8094,-121.6005 1566.7091,-125.7008 1562.6089,-125.7008"/>
<text text-anchor="middle" x="1503.2772" y="-109.2" font-family="Arial" font-size="14.00" fill="#cfffac">config/appConfig.js</text>
</g>
<!-- containers/SearchContainer.js&#45;&gt;config/appConfig.js -->
<g id="edge13" class="edge">
<title>containers/SearchContainer.js&#45;&gt;config/appConfig.js</title>
<path fill="none" stroke="#757575" d="M336.7136,-102.0227C366.6088,-91.4934 412.1551,-77.1863 453.1836,-71.4 813.8792,-20.5307 1250.6519,-74.5494 1425.4636,-100.796"/>
<polygon fill="#757575" stroke="#757575" points="1425.1847,-104.2936 1435.596,-102.3304 1426.2328,-97.3725 1425.1847,-104.2936"/>
</g>
<!-- components/search/Search.js -->
<g id="node10" class="node">
<title>components/search/Search.js</title>
<path fill="none" stroke="#cfffac" d="M674.714,-233.7008C674.714,-233.7008 490.3572,-233.7008 490.3572,-233.7008 486.2569,-233.7008 482.1566,-229.6005 482.1566,-225.5003 482.1566,-225.5003 482.1566,-217.2997 482.1566,-217.2997 482.1566,-213.1995 486.2569,-209.0992 490.3572,-209.0992 490.3572,-209.0992 674.714,-209.0992 674.714,-209.0992 678.8143,-209.0992 682.9146,-213.1995 682.9146,-217.2997 682.9146,-217.2997 682.9146,-225.5003 682.9146,-225.5003 682.9146,-229.6005 678.8143,-233.7008 674.714,-233.7008"/>
<text text-anchor="middle" x="582.5356" y="-217.2" font-family="Arial" font-size="14.00" fill="#cfffac">components/search/Search.js</text>
</g>
<!-- containers/SearchContainer.js&#45;&gt;components/search/Search.js -->
<g id="edge11" class="edge">
<title>containers/SearchContainer.js&#45;&gt;components/search/Search.js</title>
<path fill="none" stroke="#757575" d="M320.7395,-126.7146C347.4968,-145.4941 401.7474,-181.0403 453.1836,-199.4 460.8097,-202.1221 468.812,-204.5124 476.9389,-206.6106"/>
<polygon fill="#757575" stroke="#757575" points="476.3535,-210.07 486.8969,-209.0277 478.0047,-203.2675 476.3535,-210.07"/>
</g>
<!-- components/shared/Layout.js -->
<g id="node12" class="node">
<title>components/shared/Layout.js</title>
<path fill="none" stroke="#cfffac" d="M673.6723,-24.7008C673.6723,-24.7008 491.3989,-24.7008 491.3989,-24.7008 487.2986,-24.7008 483.1983,-20.6005 483.1983,-16.5003 483.1983,-16.5003 483.1983,-8.2997 483.1983,-8.2997 483.1983,-4.1995 487.2986,-.0992 491.3989,-.0992 491.3989,-.0992 673.6723,-.0992 673.6723,-.0992 677.7726,-.0992 681.8729,-4.1995 681.8729,-8.2997 681.8729,-8.2997 681.8729,-16.5003 681.8729,-16.5003 681.8729,-20.6005 677.7726,-24.7008 673.6723,-24.7008"/>
<text text-anchor="middle" x="582.5356" y="-8.2" font-family="Arial" font-size="14.00" fill="#cfffac">components/shared/Layout.js</text>
</g>
<!-- containers/SearchContainer.js&#45;&gt;components/shared/Layout.js -->
<g id="edge12" class="edge">
<title>containers/SearchContainer.js&#45;&gt;components/shared/Layout.js</title>
<path fill="none" stroke="#757575" d="M323.7708,-101.9852C351.7248,-85.1672 404.5252,-55.309 453.1836,-38.4 466.0677,-33.9227 479.9566,-30.1216 493.6857,-26.9243"/>
<polygon fill="#757575" stroke="#757575" points="494.641,-30.2973 503.6378,-24.7019 493.1153,-23.4655 494.641,-30.2973"/>
</g>
<!-- config/constants.js -->
<g id="node13" class="node">
<title>config/constants.js</title>
<path fill="none" stroke="#cfffac" d="M639.9795,-190.7008C639.9795,-190.7008 525.0917,-190.7008 525.0917,-190.7008 520.9914,-190.7008 516.8911,-186.6005 516.8911,-182.5003 516.8911,-182.5003 516.8911,-174.2997 516.8911,-174.2997 516.8911,-170.1995 520.9914,-166.0992 525.0917,-166.0992 525.0917,-166.0992 639.9795,-166.0992 639.9795,-166.0992 644.0798,-166.0992 648.1801,-170.1995 648.1801,-174.2997 648.1801,-174.2997 648.1801,-182.5003 648.1801,-182.5003 648.1801,-186.6005 644.0798,-190.7008 639.9795,-190.7008"/>
<text text-anchor="middle" x="582.5356" y="-174.2" font-family="Arial" font-size="14.00" fill="#cfffac">config/constants.js</text>
</g>
<!-- containers/SearchContainer.js&#45;&gt;config/constants.js -->
<g id="edge14" class="edge">
<title>containers/SearchContainer.js&#45;&gt;config/constants.js</title>
<path fill="none" stroke="#757575" d="M343.4293,-126.783C373.3739,-135.8301 415.5905,-147.9443 453.1836,-156.4 470.3683,-160.2653 488.9729,-163.8027 506.5719,-166.8577"/>
<polygon fill="#757575" stroke="#757575" points="506.3537,-170.3708 516.7994,-168.5994 507.529,-163.4702 506.3537,-170.3708"/>
</g>
<!-- containers/MovieListContainer.js -->
<g id="node14" class="node">
<title>containers/MovieListContainer.js</title>
<path fill="none" stroke="#c6c5fe" d="M683.5834,-147.7008C683.5834,-147.7008 481.4878,-147.7008 481.4878,-147.7008 477.3875,-147.7008 473.2873,-143.6005 473.2873,-139.5003 473.2873,-139.5003 473.2873,-131.2997 473.2873,-131.2997 473.2873,-127.1995 477.3875,-123.0992 481.4878,-123.0992 481.4878,-123.0992 683.5834,-123.0992 683.5834,-123.0992 687.6837,-123.0992 691.7839,-127.1995 691.7839,-131.2997 691.7839,-131.2997 691.7839,-139.5003 691.7839,-139.5003 691.7839,-143.6005 687.6837,-147.7008 683.5834,-147.7008"/>
<text text-anchor="middle" x="582.5356" y="-131.2" font-family="Arial" font-size="14.00" fill="#c6c5fe">containers/MovieListContainer.js</text>
</g>
<!-- containers/SearchContainer.js&#45;&gt;containers/MovieListContainer.js -->
<g id="edge15" class="edge">
<title>containers/SearchContainer.js&#45;&gt;containers/MovieListContainer.js</title>
<path fill="none" stroke="#757575" d="M405.5922,-122.0706C424.1817,-123.471 443.7344,-124.9439 462.7876,-126.3792"/>
<polygon fill="#757575" stroke="#757575" points="462.7689,-129.8876 473.0036,-127.1488 463.2948,-122.9074 462.7689,-129.8876"/>
</g>
<!-- components/movieInstance/MovieInstance.js -->
<g id="node4" class="node">
<title>components/movieInstance/MovieInstance.js</title>
<path fill="none" stroke="#c6c5fe" d="M1390.9249,-168.7008C1390.9249,-168.7008 1113.2987,-168.7008 1113.2987,-168.7008 1109.1985,-168.7008 1105.0982,-164.6005 1105.0982,-160.5003 1105.0982,-160.5003 1105.0982,-152.2997 1105.0982,-152.2997 1105.0982,-148.1995 1109.1985,-144.0992 1113.2987,-144.0992 1113.2987,-144.0992 1390.9249,-144.0992 1390.9249,-144.0992 1395.0251,-144.0992 1399.1254,-148.1995 1399.1254,-152.2997 1399.1254,-152.2997 1399.1254,-160.5003 1399.1254,-160.5003 1399.1254,-164.6005 1395.0251,-168.7008 1390.9249,-168.7008"/>
<text text-anchor="middle" x="1252.1118" y="-152.2" font-family="Arial" font-size="14.00" fill="#c6c5fe">components/movieInstance/MovieInstance.js</text>
</g>
<!-- components/movieInstance/MovieInstance.js&#45;&gt;config/appConfig.js -->
<g id="edge2" class="edge">
<title>components/movieInstance/MovieInstance.js&#45;&gt;config/appConfig.js</title>
<path fill="none" stroke="#757575" d="M1324.0857,-144.0779C1355.877,-138.6352 1393.3109,-132.2264 1425.7205,-126.6779"/>
<polygon fill="#757575" stroke="#757575" points="1426.3395,-130.1229 1435.6055,-124.9855 1425.1583,-123.2233 1426.3395,-130.1229"/>
</g>
<!-- config/languages.js -->
<g id="node6" class="node">
<title>config/languages.js</title>
<path fill="none" stroke="#cfffac" d="M1562.8944,-168.7008C1562.8944,-168.7008 1443.66,-168.7008 1443.66,-168.7008 1439.5597,-168.7008 1435.4595,-164.6005 1435.4595,-160.5003 1435.4595,-160.5003 1435.4595,-152.2997 1435.4595,-152.2997 1435.4595,-148.1995 1439.5597,-144.0992 1443.66,-144.0992 1443.66,-144.0992 1562.8944,-144.0992 1562.8944,-144.0992 1566.9947,-144.0992 1571.0949,-148.1995 1571.0949,-152.2997 1571.0949,-152.2997 1571.0949,-160.5003 1571.0949,-160.5003 1571.0949,-164.6005 1566.9947,-168.7008 1562.8944,-168.7008"/>
<text text-anchor="middle" x="1503.2772" y="-152.2" font-family="Arial" font-size="14.00" fill="#cfffac">config/languages.js</text>
</g>
<!-- components/movieInstance/MovieInstance.js&#45;&gt;config/languages.js -->
<g id="edge3" class="edge">
<title>components/movieInstance/MovieInstance.js&#45;&gt;config/languages.js</title>
<path fill="none" stroke="#757575" d="M1399.3056,-156.4C1408.1352,-156.4 1416.8179,-156.4 1425.1718,-156.4"/>
<polygon fill="#757575" stroke="#757575" points="1425.1867,-159.9001 1435.1866,-156.4 1425.1866,-152.9001 1425.1867,-159.9001"/>
</g>
<!-- components/movieInstance/MovieInstance.test.js -->
<g id="node7" class="node">
<title>components/movieInstance/MovieInstance.test.js</title>
<path fill="none" stroke="#c6c5fe" d="M1060.6385,-210.7008C1060.6385,-210.7008 756.1043,-210.7008 756.1043,-210.7008 752.0041,-210.7008 747.9038,-206.6005 747.9038,-202.5003 747.9038,-202.5003 747.9038,-194.2997 747.9038,-194.2997 747.9038,-190.1995 752.0041,-186.0992 756.1043,-186.0992 756.1043,-186.0992 1060.6385,-186.0992 1060.6385,-186.0992 1064.7387,-186.0992 1068.839,-190.1995 1068.839,-194.2997 1068.839,-194.2997 1068.839,-202.5003 1068.839,-202.5003 1068.839,-206.6005 1064.7387,-210.7008 1060.6385,-210.7008"/>
<text text-anchor="middle" x="908.3714" y="-194.2" font-family="Arial" font-size="14.00" fill="#c6c5fe">components/movieInstance/MovieInstance.test.js</text>
</g>
<!-- components/movieInstance/MovieInstance.test.js&#45;&gt;components/movieInstance/MovieInstance.js -->
<g id="edge4" class="edge">
<title>components/movieInstance/MovieInstance.test.js&#45;&gt;components/movieInstance/MovieInstance.js</title>
<path fill="none" stroke="#757575" d="M1009.1823,-186.0824C1050.6303,-181.0181 1098.7704,-175.1361 1141.2116,-169.9504"/>
<polygon fill="#757575" stroke="#757575" points="1141.8011,-173.4045 1151.3027,-168.7174 1140.952,-166.4561 1141.8011,-173.4045"/>
</g>
<!-- components/movieList/MovieList.js -->
<g id="node8" class="node">
<title>components/movieList/MovieList.js</title>
<path fill="none" stroke="#c6c5fe" d="M1016.4206,-167.7008C1016.4206,-167.7008 800.3222,-167.7008 800.3222,-167.7008 796.2219,-167.7008 792.1217,-163.6005 792.1217,-159.5003 792.1217,-159.5003 792.1217,-151.2997 792.1217,-151.2997 792.1217,-147.1995 796.2219,-143.0992 800.3222,-143.0992 800.3222,-143.0992 1016.4206,-143.0992 1016.4206,-143.0992 1020.5209,-143.0992 1024.6211,-147.1995 1024.6211,-151.2997 1024.6211,-151.2997 1024.6211,-159.5003 1024.6211,-159.5003 1024.6211,-163.6005 1020.5209,-167.7008 1016.4206,-167.7008"/>
<text text-anchor="middle" x="908.3714" y="-151.2" font-family="Arial" font-size="14.00" fill="#c6c5fe">components/movieList/MovieList.js</text>
</g>
<!-- components/movieList/MovieList.js&#45;&gt;components/movieInstance/MovieInstance.js -->
<g id="edge5" class="edge">
<title>components/movieList/MovieList.js&#45;&gt;components/movieInstance/MovieInstance.js</title>
<path fill="none" stroke="#757575" d="M1024.7462,-155.7386C1047.3273,-155.8042 1071.34,-155.8741 1094.9782,-155.9429"/>
<polygon fill="#757575" stroke="#757575" points="1095.0705,-159.4431 1105.0807,-155.9723 1095.0909,-152.4431 1095.0705,-159.4431"/>
</g>
<!-- components/movieList/MovieList.test.js -->
<g id="node9" class="node">
<title>components/movieList/MovieList.test.js</title>
<path fill="none" stroke="#c6c5fe" d="M703.5392,-276.7008C703.5392,-276.7008 461.532,-276.7008 461.532,-276.7008 457.4317,-276.7008 453.3314,-272.6005 453.3314,-268.5003 453.3314,-268.5003 453.3314,-260.2997 453.3314,-260.2997 453.3314,-256.1995 457.4317,-252.0992 461.532,-252.0992 461.532,-252.0992 703.5392,-252.0992 703.5392,-252.0992 707.6395,-252.0992 711.7398,-256.1995 711.7398,-260.2997 711.7398,-260.2997 711.7398,-268.5003 711.7398,-268.5003 711.7398,-272.6005 707.6395,-276.7008 703.5392,-276.7008"/>
<text text-anchor="middle" x="582.5356" y="-260.2" font-family="Arial" font-size="14.00" fill="#c6c5fe">components/movieList/MovieList.test.js</text>
</g>
<!-- components/movieList/MovieList.test.js&#45;&gt;components/movieList/MovieList.js -->
<g id="edge6" class="edge">
<title>components/movieList/MovieList.test.js&#45;&gt;components/movieList/MovieList.js</title>
<path fill="none" stroke="#757575" d="M694.8874,-252.0534C700.8714,-249.3464 706.5915,-246.1549 711.8876,-242.4 738.8274,-223.2999 720.6435,-196.0635 747.8876,-177.4 758.3224,-170.2517 770.0442,-164.936 782.2788,-161.0298"/>
<polygon fill="#757575" stroke="#757575" points="783.5368,-164.3103 792.1859,-158.1911 781.6086,-157.581 783.5368,-164.3103"/>
</g>
<!-- components/search/Search.test.js -->
<g id="node11" class="node">
<title>components/search/Search.test.js</title>
<path fill="none" stroke="#c6c5fe" d="M408.8996,-233.7008C408.8996,-233.7008 198.6346,-233.7008 198.6346,-233.7008 194.5343,-233.7008 190.434,-229.6005 190.434,-225.5003 190.434,-225.5003 190.434,-217.2997 190.434,-217.2997 190.434,-213.1995 194.5343,-209.0992 198.6346,-209.0992 198.6346,-209.0992 408.8996,-209.0992 408.8996,-209.0992 412.9999,-209.0992 417.1002,-213.1995 417.1002,-217.2997 417.1002,-217.2997 417.1002,-225.5003 417.1002,-225.5003 417.1002,-229.6005 412.9999,-233.7008 408.8996,-233.7008"/>
<text text-anchor="middle" x="303.7671" y="-217.2" font-family="Arial" font-size="14.00" fill="#c6c5fe">components/search/Search.test.js</text>
</g>
<!-- components/search/Search.test.js&#45;&gt;components/search/Search.js -->
<g id="edge7" class="edge">
<title>components/search/Search.test.js&#45;&gt;components/search/Search.js</title>
<path fill="none" stroke="#757575" d="M417.1529,-221.4C435.2564,-221.4 453.9665,-221.4 472.0025,-221.4"/>
<polygon fill="#757575" stroke="#757575" points="472.2384,-224.9001 482.2384,-221.4 472.2384,-217.9001 472.2384,-224.9001"/>
</g>
<!-- containers/MovieListContainer.js&#45;&gt;config/appConfig.js -->
<g id="edge9" class="edge">
<title>containers/MovieListContainer.js&#45;&gt;config/appConfig.js</title>
<path fill="none" stroke="#757575" d="M691.7724,-132.7899C880.1574,-128.2887 1261.6724,-119.1729 1425.5779,-115.2565"/>
<polygon fill="#757575" stroke="#757575" points="1425.6696,-118.7554 1435.5831,-115.0175 1425.5023,-111.7574 1425.6696,-118.7554"/>
</g>
<!-- containers/MovieListContainer.js&#45;&gt;components/movieList/MovieList.js -->
<g id="edge8" class="edge">
<title>containers/MovieListContainer.js&#45;&gt;components/movieList/MovieList.js</title>
<path fill="none" stroke="#757575" d="M691.9406,-142.1153C720.8426,-143.8894 752.2723,-145.8185 781.9916,-147.6427"/>
<polygon fill="#757575" stroke="#757575" points="781.803,-151.1377 791.9987,-148.257 782.2319,-144.1508 781.803,-151.1377"/>
</g>
<!-- index.js -->
<g id="node15" class="node">
<title>index.js</title>
<path fill="none" stroke="#c6c5fe" d="M55.4785,-126.7008C55.4785,-126.7008 7.9731,-126.7008 7.9731,-126.7008 3.8728,-126.7008 -.2274,-122.6005 -.2274,-118.5003 -.2274,-118.5003 -.2274,-110.2997 -.2274,-110.2997 -.2274,-106.1995 3.8728,-102.0992 7.9731,-102.0992 7.9731,-102.0992 55.4785,-102.0992 55.4785,-102.0992 59.5788,-102.0992 63.679,-106.1995 63.679,-110.2997 63.679,-110.2997 63.679,-118.5003 63.679,-118.5003 63.679,-122.6005 59.5788,-126.7008 55.4785,-126.7008"/>
<text text-anchor="middle" x="31.7258" y="-110.2" font-family="Arial" font-size="14.00" fill="#c6c5fe">index.js</text>
</g>
<!-- index.js&#45;&gt;App.js -->
<g id="edge16" class="edge">
<title>index.js&#45;&gt;App.js</title>
<path fill="none" stroke="#757575" d="M63.6826,-114.4C71.8986,-114.4 80.8139,-114.4 89.2874,-114.4"/>
<polygon fill="#757575" stroke="#757575" points="89.3276,-117.9001 99.3275,-114.4 89.3275,-110.9001 89.3276,-117.9001"/>
</g>
</g>
</svg>
